<svg xmlns="http://www.w3.org/2000/svg" viewBox="0 0 489.72 497.55"><g data-name="Слой 2"><g data-name="Слой 1" stroke="#4276d7" stroke-width="9"><circle cx="115.46" cy="382.1" r="110.96" fill="none" stroke-miterlimit="10"/><path fill="none" stroke-linecap="round" stroke-miterlimit="10" d="M196.75 306.06L428.66 20.59M176.95 288.98L408.86 4.5"/><path d="M412.8 40.66L352.44 115a6.78 6.78 0 001 9.53l17.05 13.85a6.78 6.78 0 009.53-1l16-19.75a6.78 6.78 0 019.53-1l12.95 10.52a6.76 6.76 0 009.52-1l14-17.25a6.79 6.79 0 019.53-1l9.36 7.61a6.77 6.77 0 009.53-1l13.26-16.25a6.78 6.78 0 00-1-9.53l-60.37-49.06a6.79 6.79 0 00-9.53.99z" fill="#fff" stroke-linecap="round" stroke-linejoin="round"/><path fill="none" stroke-linecap="round" stroke-linejoin="round" d="M408.86 4.5l19.8 16.09"/></g></g></svg>