<svg xmlns="http://www.w3.org/2000/svg" viewBox="0 0 469.37 480.5"><g data-name="Слой 2"><g data-name="Слой 1" fill="none" stroke="#3c64b1" stroke-width="30.38"><circle cx="111.14" cy="369.37" r="95.95" stroke-miterlimit="10"/><path stroke-linejoin="round" d="M160.349 285.733L380.143 15.181l19.373 15.738-219.794 270.553z"/><path d="M384.19 50.33l-58.34 71.8a6.54 6.54 0 001 9.21l16.47 13.39a6.54 6.54 0 009.21-1L368 124.69a6.54 6.54 0 019.21-1l12.51 10.17a6.54 6.54 0 009.21-1l13.55-16.67a6.54 6.54 0 019.21-1l9 7.35a6.54 6.54 0 009.21-1L452.71 106a6.54 6.54 0 00-.95-9.21L393.4 49.37a6.54 6.54 0 00-9.21.96z" stroke-linecap="round" stroke-linejoin="round"/></g></g></svg>