<svg xmlns="http://www.w3.org/2000/svg" viewBox="0 0 469.37 480.5"><title>Ресурс 13</title><g id="Слой_2" data-name="Слой 2"><g id="Слой_1-2" data-name="Слой 1"><circle cx="111.14" cy="369.37" r="95.95" style="fill:none;stroke:#3c64b1;stroke-miterlimit:10;stroke-width:30.38006548546622px"/><rect x="105.65" y="145.85" width="348.58" height="24.96" transform="translate(-19.47 275.77) rotate(-50.91)" style="fill:none;stroke:#3c64b1;stroke-linejoin:round;stroke-width:30.38006548546622px"/><path d="M384.19,50.33l-58.34,71.8a6.54,6.54,0,0,0,1,9.21l16.47,13.39a6.54,6.54,0,0,0,9.21-1L368,124.69a6.54,6.54,0,0,1,9.21-1l12.51,10.17a6.54,6.54,0,0,0,9.21-1l13.55-16.67a6.54,6.54,0,0,1,9.21-1l9,7.35a6.54,6.54,0,0,0,9.21-1L452.71,106a6.54,6.54,0,0,0-.95-9.21L393.4,49.37A6.54,6.54,0,0,0,384.19,50.33Z" style="fill:none;stroke:#3c64b1;stroke-linecap:round;stroke-linejoin:round;stroke-width:30.38006548546622px"/></g></g></svg>
