<svg width="44" height="46" fill="none" xmlns="http://www.w3.org/2000/svg"><g filter="url(#filter0_d_3716_258)" stroke="#3C64B1" stroke-width="2" stroke-linecap="round" stroke-linejoin="round"><path d="M22 36.667c9.205 0 16.667-7.462 16.667-16.667 0-9.205-7.462-16.667-16.667-16.667-9.205 0-16.666 7.462-16.666 16.667 0 9.205 7.461 16.667 16.666 16.667z"/><path d="M22 26.667a6.667 6.667 0 100-13.334 6.667 6.667 0 000 13.334zM10.217 8.217l7.066 7.066m9.434 9.434l7.066 7.066m-7.066-16.5l7.066-7.066m-7.066 7.066L32.6 9.4M10.217 31.783l7.066-7.066"/></g><defs><filter id="filter0_d_3716_258" x="-2" y="0" width="48" height="48" filterUnits="userSpaceOnUse" color-interpolation-filters="sRGB"><feFlood flood-opacity="0" result="BackgroundImageFix"/><feColorMatrix in="SourceAlpha" values="0 0 0 0 0 0 0 0 0 0 0 0 0 0 0 0 0 0 127 0" result="hardAlpha"/><feOffset dy="4"/><feGaussianBlur stdDeviation="2"/><feComposite in2="hardAlpha" operator="out"/><feColorMatrix values="0 0 0 0 0 0 0 0 0 0 0 0 0 0 0 0 0 0 0.25 0"/><feBlend in2="BackgroundImageFix" result="effect1_dropShadow_3716_258"/><feBlend in="SourceGraphic" in2="effect1_dropShadow_3716_258" result="shape"/></filter></defs></svg>