<svg xmlns="http://www.w3.org/2000/svg" viewBox="0 0 489.72 497.55"><title>Ресурс 1</title><g id="Слой_2" data-name="Слой 2"><g id="Слой_1-2" data-name="Слой 1"><circle cx="115.46" cy="382.1" r="110.96" style="fill:none;stroke:#4276d7;stroke-miterlimit:10;stroke-width:9px"/><line x1="196.75" y1="306.06" x2="428.66" y2="20.59" style="fill:none;stroke:#4276d7;stroke-linecap:round;stroke-miterlimit:10;stroke-width:9px"/><line x1="176.95" y1="288.98" x2="408.86" y2="4.5" style="fill:none;stroke:#4276d7;stroke-linecap:round;stroke-miterlimit:10;stroke-width:9px"/><path d="M412.8,40.66,352.44,115a6.78,6.78,0,0,0,1,9.53l17.05,13.85a6.78,6.78,0,0,0,9.53-1l16-19.75a6.78,6.78,0,0,1,9.53-1l12.95,10.52a6.76,6.76,0,0,0,9.52-1l14-17.25a6.79,6.79,0,0,1,9.53-1l9.36,7.61a6.77,6.77,0,0,0,9.53-1L483.7,98.26a6.78,6.78,0,0,0-1-9.53L422.33,39.67A6.79,6.79,0,0,0,412.8,40.66Z" style="fill:#fff;stroke:#4276d7;stroke-linecap:round;stroke-linejoin:round;stroke-width:9px"/><line x1="408.86" y1="4.5" x2="428.66" y2="20.59" style="fill:none;stroke:#4276d7;stroke-linecap:round;stroke-linejoin:round;stroke-width:9px"/></g></g></svg>